<?xml version="1.0" encoding="UTF-8"?>
<svg version="1.1" xmlns="http://www.w3.org/2000/svg" width="1280" height="1280">
<path d="M0 0 C4.08567478 3.27836791 7.73744273 6.88905763 11.390625 10.63671875 C13.3209866 12.57055223 15.29362969 14.35755537 17.375 16.125 C20.9514884 19.18750205 24.25639493 22.46530616 27.5625 25.8125 C30.80701281 29.09718632 34.0417241 32.31984049 37.5625 35.3125 C41.08327747 38.30516085 44.31796936 41.52783291 47.5625 44.8125 C50.74537463 48.03460279 53.90940185 51.20302509 57.375 54.125 C62.26943733 58.27597849 66.70522534 62.90671088 71.1965332 67.48364258 C73.8891642 70.21268413 76.50365902 72.76609568 79.51953125 75.14453125 C80.53080078 75.97017578 80.53080078 75.97017578 81.5625 76.8125 C81.5625 77.4725 81.5625 78.1325 81.5625 78.8125 C82.1390332 79.06233643 82.71556641 79.31217285 83.30957031 79.56958008 C85.87713351 80.98608032 87.56239768 82.60171967 89.609375 84.69921875 C90.3725 85.47330078 91.135625 86.24738281 91.921875 87.04492188 C92.71078125 87.85509766 93.4996875 88.66527344 94.3125 89.5 C99.32306968 94.6233075 104.3539447 99.60101887 109.79394531 104.26879883 C112.16683853 106.34000311 114.36590814 108.55654079 116.5625 110.8125 C119.45841958 113.74368191 122.36492571 116.57653174 125.5 119.25 C129.89991599 123.00602585 133.90931047 127.12826701 137.94921875 131.26171875 C140.38111292 133.63545103 142.90990316 135.69459985 145.5625 137.8125 C147.25381097 139.45415245 148.91591861 141.12598725 150.5625 142.8125 C153.49536099 145.77544537 156.43556723 148.73107629 159.375 151.6875 C160.14392578 152.46480469 160.91285156 153.24210938 161.70507812 154.04296875 C165.90463583 158.26024611 170.18596581 162.28852361 174.69799805 166.16845703 C178.18325039 169.24161263 181.38578095 172.5939675 184.62890625 175.91796875 C187.48063763 178.81174039 190.38966427 181.56664686 193.46875 184.21875 C198.43012954 188.50595165 202.97390699 193.17334853 207.5625 197.8515625 C211.45799914 201.79271202 215.4580868 205.51291021 219.65625 209.12890625 C222.59482019 211.7242418 225.32380509 214.50955418 228.0625 217.3125 C232.06905128 221.36954197 236.1213933 225.252492 240.47265625 228.94140625 C243.28160558 231.45633472 245.91358358 234.13085565 248.5625 236.8125 C251.76593506 240.05546534 254.95357187 243.24186119 258.4375 246.1875 C262.98339785 250.0486601 267.11935856 254.31683275 271.28857422 258.57568359 C274.23289541 261.56368658 277.22257021 264.42330055 280.40625 267.15625 C286.07744519 272.05161694 291.24444652 277.44921291 296.49609375 282.78515625 C300.78760517 287.11840036 305.14410597 291.27188459 309.77148438 295.24414062 C312.33159886 297.4859857 314.68480371 299.87750982 317.0625 302.3125 C320.72555893 306.03105982 324.4879511 309.54529168 328.4609375 312.9296875 C332.13100314 316.21773888 335.53714876 319.77810354 338.99609375 323.28515625 C341.01952683 325.27779127 343.0331435 327.10885191 345.25 328.875 C346.013125 329.514375 346.77625 330.15375 347.5625 330.8125 C347.5625 331.4725 347.5625 332.1325 347.5625 332.8125 C348.1390332 333.06233643 348.71556641 333.31217285 349.30957031 333.56958008 C351.87713351 334.98608032 353.56239768 336.60171967 355.609375 338.69921875 C356.3725 339.47330078 357.135625 340.24738281 357.921875 341.04492188 C358.71078125 341.85509766 359.4996875 342.66527344 360.3125 343.5 C365.29293923 348.59249911 370.2932508 353.53563258 375.70019531 358.17504883 C379.18827101 361.24197643 382.3872387 364.59546161 385.62890625 367.91796875 C388.48063763 370.81174039 391.38966427 373.56664686 394.46875 376.21875 C399.43012954 380.50595165 403.97390699 385.17334853 408.5625 389.8515625 C412.45799914 393.79271202 416.4580868 397.51291021 420.65625 401.12890625 C423.59482019 403.7242418 426.32380509 406.50955418 429.0625 409.3125 C433.06905128 413.36954197 437.1213933 417.252492 441.47265625 420.94140625 C444.83823064 423.95469622 447.96939608 427.1997099 451.14306641 430.41259766 C453.84678749 433.1367821 456.56999731 435.76600194 459.5 438.25 C463.79344262 441.89808173 467.7097711 445.90457511 471.64428711 449.93139648 C474.44871428 452.78104933 477.30791583 455.49073556 480.34375 458.09375 C486.26309147 463.20874076 491.65425358 468.86018924 497.140625 474.4296875 C501.55699439 478.88669833 506.02584759 483.17759673 510.7890625 487.26171875 C513.34443486 489.49626243 515.69067 491.88351747 518.0625 494.3125 C521.74960694 498.0555589 525.53773357 501.59506114 529.53515625 505.00390625 C531.97678634 507.18208492 534.26298032 509.48498008 536.5625 511.8125 C539.39739999 514.68176241 542.23370659 517.45736711 545.3125 520.0625 C551.19738584 525.09293411 556.54151584 530.71459241 561.98144531 536.21508789 C564.82150005 539.08452553 567.67460233 541.94027111 570.5546875 544.76953125 C583.13476927 557.16691473 592.64344613 568.37392384 592.94238281 586.66552734 C592.94077148 587.58027832 592.93916016 588.4950293 592.9375 589.4375 C592.93588867 590.39736816 592.93427734 591.35723633 592.93261719 592.34619141 C592.78985795 600.71440203 591.44591609 607.94863792 588.5625 615.8125 C588.29695313 616.54984375 588.03140625 617.2871875 587.7578125 618.046875 C584.73780548 625.00727212 579.26767937 630.92348544 574.5625 636.8125 C573.8921875 637.69550781 573.221875 638.57851563 572.53125 639.48828125 C564.2580017 649.2553105 550.93007781 654.09712351 538.5625 655.8125 C533.4795118 656.08094774 528.40270391 656.0560648 523.31445312 656.02368164 C521.79493816 656.02147569 520.27542165 656.02017395 518.75590515 656.0196991 C515.49469202 656.01677797 512.2335803 656.00756948 508.97239685 655.99339485 C503.76809864 655.97087771 498.56383671 655.96299329 493.35949707 655.95689392 C485.07645973 655.94552197 476.79347687 655.92483529 468.51046991 655.89999622 C451.18409136 655.84804316 433.85768651 655.81098735 416.53125 655.78515625 C415.20968222 655.78303678 415.20968222 655.78303678 413.8614161 655.78087449 C392.77620608 655.74794812 371.70944512 655.7752872 350.63163757 656.40377808 C328.26999066 657.0684114 305.89802328 657.20898707 283.52824271 657.40714306 C276.6763547 657.46790364 269.82462949 657.53756251 262.97290307 657.61438721 C256.93302493 657.68149192 250.89309541 657.73729735 244.85306358 657.789011 C242.31613483 657.81231054 239.77923497 657.83903167 237.24238014 657.86932945 C233.73036145 657.91044855 230.21846419 657.93863284 226.70629883 657.96362305 C225.67536102 657.97859329 224.64442322 657.99356354 223.58224487 658.00898743 C211.22912784 658.06336328 211.22912784 658.06336328 206.3828125 653.97265625 C205.82335937 653.28042969 205.26390625 652.58820312 204.6875 651.875 C204.11257813 651.18535156 203.53765625 650.49570312 202.9453125 649.78515625 C200.11880288 645.75298857 200.40232604 641.6846873 200.38549805 636.96386719 C200.37564125 635.76575661 200.37564125 635.76575661 200.36558533 634.54344177 C200.34586717 631.89875188 200.33419255 629.25411875 200.32421875 626.609375 C200.32014322 625.7051606 200.3160677 624.8009462 200.31186867 623.86933136 C200.29101345 619.08264902 200.27670981 614.29599529 200.26733398 609.50927734 C200.25627553 604.57183185 200.22188063 599.63483777 200.18216228 594.69755173 C200.15598264 590.89533668 200.14764091 587.09322894 200.14405251 583.2909317 C200.13918941 581.47131555 200.12758329 579.65170411 200.10901451 577.83217621 C200.08459581 575.28066018 200.08559288 572.7303087 200.0925293 570.17871094 C200.07971924 569.43247971 200.06690918 568.68624847 200.05371094 567.91740417 C200.11398939 561.80899813 202.03095568 557.75278324 206.0625 553.0703125 C213.84441694 547.19334398 225.25377276 548.66441373 234.58251953 548.62304688 C235.61767008 548.61473374 236.65282063 548.60642061 237.71933937 548.59785557 C241.12798075 548.57146145 244.53662895 548.55139307 247.9453125 548.53125 C250.37477953 548.51342301 252.80424324 548.49513779 255.23370361 548.47642517 C260.3850162 548.43744385 265.53633748 548.40100585 270.68768311 548.3666687 C283.38965189 548.28169615 296.09150776 548.18181193 308.79336786 548.08207965 C310.79926489 548.06638755 312.80516318 548.05086649 314.81106186 548.03538704 C338.52107497 547.85154224 362.22923292 547.58961151 385.9375 547.25 C386.72216896 547.23883148 387.50683792 547.22766296 388.31528473 547.21615601 C397.39777036 547.0868177 406.48018332 546.9532658 415.5625 546.8125 C414.89691071 546.21837311 414.23132141 545.62424622 413.54556274 545.01211548 C404.78216546 537.16285072 404.78216546 537.16285072 400.7109375 533.0234375 C399.92203125 532.22679687 399.133125 531.43015625 398.3203125 530.609375 C397.53398438 529.81015625 396.74765625 529.0109375 395.9375 528.1875 C390.90076898 523.06900387 385.83831362 518.09553566 380.38916016 513.41650391 C377.64773967 511.00924213 375.10785249 508.42361716 372.5625 505.8125 C368.62859416 501.82411994 364.62317595 498.02086942 360.35546875 494.38671875 C357.9255404 492.25325225 355.68888522 489.95159801 353.42651367 487.64331055 C351.67561598 485.92360108 349.87193131 484.33577621 348 482.75 C341.78969252 477.35097464 336.11344036 471.40721282 330.33984375 465.55078125 C325.82905899 461.00060099 321.27822606 456.60689583 316.41210938 452.43945312 C313.31258648 449.71305126 310.44882305 446.76091208 307.5625 443.8125 C303.29681907 439.49696781 299.00386172 435.3187157 294.3671875 431.3984375 C291.57504354 428.94473523 289.00606659 426.27899442 286.421875 423.609375 C284.58217091 421.74544877 284.58217091 421.74544877 282.328125 420.203125 C281.74546875 419.74421875 281.1628125 419.2853125 280.5625 418.8125 C280.5625 418.1525 280.5625 417.4925 280.5625 416.8125 C279.99047852 416.56717529 279.41845703 416.32185059 278.82910156 416.0690918 C276.17513203 414.59774527 274.41750817 412.87697599 272.296875 410.70703125 C271.48863281 409.88783203 270.68039062 409.06863281 269.84765625 408.22460938 C269.01105469 407.36673828 268.17445313 406.50886719 267.3125 405.625 C262.21936661 400.42392736 257.12258484 395.35754348 251.59472656 390.61987305 C246.70834048 386.27413588 242.21385376 381.49838593 237.62890625 376.83984375 C233.3273159 372.4964227 228.96061883 368.33128646 224.32226562 364.34960938 C221.9529575 362.28008053 219.75643956 360.06573523 217.5625 357.8125 C214.66658042 354.88131809 211.76007429 352.04846826 208.625 349.375 C204.33116987 345.70572698 200.41113388 341.69363108 196.46875 337.65625 C194.3071451 335.48889104 192.04904481 333.47477724 189.73046875 331.4765625 C185.41262452 327.73708295 181.38743978 323.7498553 177.375 319.6875 C176.68986328 318.99785156 176.00472656 318.30820312 175.29882812 317.59765625 C172.48372568 314.76358776 169.67342851 311.9248754 166.8671875 309.08203125 C164.59855948 306.84800942 162.26377664 304.72949248 159.875 302.625 C155.39505104 298.62433236 151.16077316 294.43234779 146.94140625 290.16015625 C144.20889525 287.4635403 141.35130155 284.9615487 138.4375 282.46484375 C134.50546475 278.99973769 130.90408256 275.19034155 127.25 271.4375 C124.92839641 269.16988719 122.5550182 267.02402261 120.125 264.875 C115.73747593 260.95967583 111.57302472 256.86711347 107.4375 252.6875 C102.18564674 247.36716596 102.18564674 247.36716596 96.625 242.375 C91.81511065 238.31308481 87.48363288 233.75721917 83.05761719 229.28808594 C79.35424788 225.56248529 75.59948682 222.00054771 71.58203125 218.61328125 C68.2337207 215.62765037 65.12872801 212.39802247 61.97705078 209.20751953 C59.31578329 206.52614803 56.64063257 203.93720001 53.75 201.5 C49.62546016 197.99803221 45.86678725 194.15385253 42.0625 190.3125 C37.71779817 185.92550883 33.37203692 181.66071234 28.6484375 177.6796875 C25.06238156 174.46969735 21.73103856 171.00004783 18.34814453 167.57861328 C14.84033148 164.04627722 11.24894447 160.69916018 7.4453125 157.484375 C5.24314868 155.52892663 3.23026193 153.43355594 1.1875 151.3125 C-8.90614088 141.13199474 -19.32466925 135.71269873 -33.8125 135.625 C-47.02480964 135.77462978 -57.64032427 140.96935637 -67.4375 149.8125 C-69.26368556 151.74747959 -70.98710833 153.73454786 -72.69140625 155.77734375 C-74.51413598 157.90182292 -76.43940699 159.85275811 -78.4375 161.8125 C-80.91409621 164.25150082 -83.25780857 166.71992422 -85.5 169.375 C-89.80393585 174.40296244 -94.56398609 178.98800447 -99.28344727 183.62133789 C-99.91822998 184.2477417 -100.5530127 184.87414551 -101.20703125 185.51953125 C-101.78042236 186.0813208 -102.35381348 186.64311035 -102.94458008 187.22192383 C-104.64707915 188.94814277 -104.64707915 188.94814277 -106.4375 191.8125 C-107.0975 191.8125 -107.7575 191.8125 -108.4375 191.8125 C-108.66477783 192.36647461 -108.89205566 192.92044922 -109.1262207 193.49121094 C-110.82012124 196.48983434 -112.95972907 198.54044461 -115.41796875 200.953125 C-115.90904617 201.43900085 -116.4001236 201.92487671 -116.90608215 202.42547607 C-118.47435648 203.97600303 -120.04913482 205.51969156 -121.625 207.0625 C-123.68444561 209.08506098 -125.74060435 211.11087858 -127.79296875 213.140625 C-128.28969086 213.63175781 -128.78641296 214.12289062 -129.29818726 214.62890625 C-132.67684622 217.9936444 -135.85746016 221.47430217 -138.95043945 225.10058594 C-141.15711475 227.64092532 -143.5298018 229.96145352 -145.9375 232.3125 C-149.70242753 236.02106251 -153.26577053 239.83128602 -156.6953125 243.8515625 C-159.33521838 246.82293638 -162.17944023 249.57706888 -165.03125 252.34375 C-166.94576702 254.30799474 -168.72093154 256.29265697 -170.5 258.375 C-175.82227234 264.50904749 -181.69000416 270.12194474 -187.46728516 275.82177734 C-192.80721006 281.09656031 -198.05970318 286.3802048 -202.93945312 292.09179688 C-205.15188324 294.63306275 -207.52658075 296.95830826 -209.9375 299.3125 C-213.72430573 303.04252623 -217.31147309 306.87484079 -220.76171875 310.91796875 C-223.13152069 313.59711546 -225.67771712 316.07891653 -228.25 318.5625 C-230.12892378 320.49510731 -231.88061771 322.46919549 -233.63671875 324.51171875 C-237.62620798 329.10596642 -241.91199638 333.36224363 -246.25 337.625 C-247.75882992 339.10832138 -249.26544327 340.59390176 -250.76953125 342.08203125 C-251.75530151 343.05039917 -251.75530151 343.05039917 -252.76098633 344.03833008 C-254.62455906 345.910766 -254.62455906 345.910766 -256.4375 348.8125 C-257.0975 348.8125 -257.7575 348.8125 -258.4375 348.8125 C-258.68282471 349.38452148 -258.92814941 349.95654297 -259.1809082 350.54589844 C-260.65225473 353.19986797 -262.37302401 354.95749183 -264.54296875 357.078125 C-265.36216797 357.88636719 -266.18136719 358.69460938 -267.02539062 359.52734375 C-267.88326172 360.36394531 -268.74113281 361.20054687 -269.625 362.0625 C-274.88766827 367.21595071 -280.02320798 372.37370163 -284.81762695 377.96777344 C-287.38494877 380.89146352 -290.15586806 383.59466888 -292.9375 386.3125 C-297.08136848 390.40453331 -301.06047302 394.54622378 -304.83203125 398.98828125 C-307.17301716 401.6482336 -309.70187087 404.1022374 -312.25 406.5625 C-314.07659136 408.44127968 -315.76830541 410.35343371 -317.46875 412.34375 C-322.80383787 418.4864951 -328.67933468 424.11141829 -334.46728516 429.82177734 C-339.80721006 435.09656031 -345.05970318 440.3802048 -349.93945312 446.09179688 C-352.15188324 448.63306275 -354.52658075 450.95830826 -356.9375 453.3125 C-360.69903764 457.01772336 -364.25843705 460.82553208 -367.6875 464.83984375 C-370.45152298 467.9555393 -373.4126923 470.86329767 -376.38671875 473.77734375 C-377.93898555 475.31778376 -379.42441946 476.9259476 -380.875 478.5625 C-390.29679633 486.83529677 -402.05058451 488.11033254 -414.11621094 488.11889648 C-415.13215836 488.12722 -416.14810577 488.13554352 -417.19483948 488.14411926 C-420.52055795 488.16802665 -423.84608 488.17696403 -427.171875 488.18359375 C-429.49733536 488.19256883 -431.82279516 488.20169083 -434.14825439 488.21095276 C-439.00656535 488.22738862 -443.86480778 488.23513405 -448.72314453 488.23803711 C-454.94634917 488.24344106 -461.16891098 488.28122771 -467.39193344 488.32678127 C-472.18748338 488.35651099 -476.98287695 488.36375965 -481.77851105 488.36476326 C-484.07343772 488.36896713 -486.36836478 488.38140801 -488.66320038 488.40228081 C-491.86807525 488.42913277 -495.07143733 488.42438943 -498.27636719 488.41186523 C-499.69318535 488.43411667 -499.69318535 488.43411667 -501.1386261 488.45681763 C-505.47984211 488.40850243 -508.48918628 488.24256957 -511.9553833 485.47425842 C-516.13910188 480.98774569 -517.59448543 476.79990434 -517.8125 470.75 C-517.4703128 462.01106526 -512.31397887 456.81535475 -506.4375 450.8125 C-504.44173664 449.01403644 -502.40516438 447.27555512 -500.35546875 445.5390625 C-497.81779212 443.2546367 -495.68749886 440.71559498 -493.484375 438.11328125 C-490.91551926 435.22576974 -488.18822085 432.52560343 -485.4375 429.8125 C-482.1525778 426.56826262 -478.93013087 423.3332422 -475.9375 419.8125 C-472.50266532 415.77151802 -468.7578259 412.07443359 -464.96289062 408.375 C-462.24126215 405.7006094 -459.67172329 402.95979086 -457.1875 400.0625 C-452.059705 394.13454358 -446.4004638 388.73124046 -440.8203125 383.234375 C-436.34294587 378.79783542 -432.02874208 374.30862366 -427.92578125 369.5234375 C-426.03043443 367.34453486 -424.00966451 365.32280885 -421.9375 363.3125 C-419.2130846 360.6247154 -416.60489688 357.91433137 -414.125 355 C-410.61819295 350.90463792 -406.82175563 347.13672468 -402.96362305 343.37573242 C-400.26235393 340.72132435 -397.71224246 338.00347869 -395.25 335.125 C-390.15137791 329.23076874 -384.52619799 323.8436493 -378.98046875 318.37597656 C-373.79833839 313.26019423 -368.72048958 308.11877472 -363.984375 302.58203125 C-361.60111217 299.85572302 -359.02903415 297.33884911 -356.4375 294.8125 C-353.21339836 291.63194724 -350.04673118 288.46530907 -347.125 285 C-343.62300637 280.87542972 -339.77865228 277.11703014 -335.9375 273.3125 C-330.88840966 268.30684138 -326.01405087 263.25801623 -321.4375 257.8125 C-317.32870239 253.04150782 -313.37157996 248.734461 -308.4375 244.8125 C-307.41886265 243.68320288 -306.42148726 242.53461334 -305.4375 241.375 C-302.12248391 237.48567191 -298.57070383 233.89992875 -294.9375 230.3125 C-291.48787894 226.90207918 -288.07627171 223.51625062 -284.9375 219.8125 C-281.31405616 215.53683627 -277.32401529 211.64431832 -273.31835938 207.73046875 C-270.45847211 204.91597653 -267.73912098 202.04525359 -265.125 199 C-260.21693663 193.320126 -254.81142382 188.14102218 -249.46484375 182.87890625 C-245.1214227 178.5773159 -240.95628646 174.21061883 -236.97460938 169.57226562 C-234.90508053 167.2029575 -232.69073523 165.00643956 -230.4375 162.8125 C-227.52696199 159.93692341 -224.71325978 157.05375906 -222.0625 153.9375 C-219.02319211 150.37963721 -215.76385328 147.09808915 -212.4375 143.8125 C-209.19452522 140.60907369 -206.00813813 137.42142733 -203.0625 133.9375 C-196.81902313 126.59677843 -189.68327664 120.00107306 -182.828125 113.23828125 C-180.24623664 110.61842395 -177.77755496 107.91745638 -175.3125 105.1875 C-170.66439568 100.06854048 -165.8352341 95.18600014 -160.91796875 90.32421875 C-158.85133757 88.23155128 -156.90532052 86.11248293 -155 83.875 C-151.50240949 79.7705986 -147.68216273 76.02956583 -143.84887695 72.2434082 C-140.42977083 68.85011884 -137.21179119 65.35075381 -134.0859375 61.68359375 C-131.04044493 58.22674318 -127.72240674 55.0394378 -124.4375 51.8125 C-120.77490939 48.20377102 -117.27321227 44.48679129 -113.8125 40.6875 C-108.97105413 35.40010175 -103.97350887 30.32182127 -98.875 25.28125 C-96.86292259 23.24337673 -94.97478775 21.18274954 -93.125 19 C-69.38084027 -8.4842899 -32.74244906 -24.37431028 0 0 Z " fill="#3936FF" transform="translate(662.4375,31.1875)"/>
<path d="M0 0 C2.26319479 -0.00050985 4.52638975 -0.00277225 6.7895813 -0.00663757 C12.92681599 -0.01204436 19.06374686 0.00736143 25.20092726 0.03146338 C31.72603292 0.05299725 38.25114009 0.05217713 44.77627563 0.05415344 C55.81053625 0.05991841 66.84469133 0.08167271 77.87890625 0.11328125 C89.0162807 0.14515623 100.1535977 0.16678404 111.29101562 0.17480469 C111.96717146 0.17530275 112.6433273 0.17580082 113.3399727 0.17631398 C116.06478114 0.178306 118.78958959 0.18025998 121.51439808 0.18216347 C170.95966646 0.21741635 220.40554334 0.35608315 269.84867907 0.83788323 C272.66532323 0.86419896 275.48197636 0.8872355 278.29865646 0.909338 C282.62060149 0.94384899 286.94233638 0.98802722 291.26410246 1.04027724 C292.8115632 1.05765895 294.35906212 1.07198479 295.90658236 1.08284593 C317.85904308 1.24429424 317.85904308 1.24429424 325.13134766 7.93481445 C328.16136849 11.57639913 327.57017575 16.04786288 327.58569336 20.51806641 C327.59226456 21.33792023 327.59883575 22.15777405 327.60560608 23.00247192 C327.6253242 25.71689954 327.63699797 28.43127188 327.64697266 31.14575195 C327.65104818 32.07327963 327.65512371 33.0008073 327.65932274 33.95644188 C327.68017651 38.86516471 327.69448159 43.77385964 327.70385742 48.68261719 C327.71492421 53.75019195 327.7493292 58.8173279 327.78902912 63.88474751 C327.81518332 67.78385734 327.82354816 71.68286239 327.8271389 75.58205223 C327.83200746 77.44994256 327.84362911 79.31782812 327.8621769 81.18563271 C327.8865445 83.80200553 327.88560793 86.41723967 327.87866211 89.03369141 C327.8978772 90.18648338 327.8978772 90.18648338 327.91748047 91.36256409 C327.85954481 97.3624973 325.93082991 100.87383302 321.81103516 105.11450195 C316.64655376 109.23231512 312.93330589 109.61470916 306.53108215 109.59022522 C305.71997551 109.59107964 304.90886887 109.59193407 304.07318324 109.59281439 C301.34621126 109.59446589 298.61930033 109.58895316 295.89233398 109.58349609 C293.94117738 109.58321413 291.99002068 109.58337214 290.03886414 109.5839386 C284.73341661 109.5842262 279.42799158 109.57833553 274.1225493 109.57136464 C268.58118697 109.56512486 263.03982416 109.56452681 257.49845886 109.56333923 C247.00126108 109.56022777 236.50407367 109.55201685 226.00688046 109.54198974 C214.0578256 109.53082289 202.10877026 109.52531671 190.15971148 109.52029431 C165.57603236 109.5098341 140.99236246 109.49223821 116.40869141 109.4699707 C118.49046977 111.56528664 120.57404449 113.65876194 122.65869141 115.7512207 C123.24521484 116.34193359 123.83173828 116.93264648 124.43603516 117.54125977 C127.34480872 120.45820405 130.25665887 123.31237464 133.40869141 125.9699707 C137.73287846 129.634536 141.64951431 133.68517936 145.63134766 137.7121582 C148.47510717 140.57571187 151.32744225 143.3587426 154.40869141 145.9699707 C158.11247707 149.10877211 161.49798285 152.52059746 164.90869141 155.9699707 C168.29875258 159.39841898 171.66063123 162.79257791 175.34619141 165.9074707 C179.2513912 169.21569728 182.81150067 172.83510812 186.40869141 176.4699707 C191.75334335 181.88491938 191.75334335 181.88491938 197.40869141 186.9699707 C201.96649303 190.82052725 206.07826625 195.11511121 210.27148438 199.35229492 C213.83932418 202.94314686 217.4736546 206.35528519 221.34228516 209.62231445 C224.74625648 212.66594099 227.92164237 215.94188145 231.11035156 219.20874023 C234.05832349 222.20775929 237.12251168 224.85465382 240.40869141 227.4699707 C242.10000238 229.11162315 243.76211001 230.78345795 245.40869141 232.4699707 C248.34155239 235.43291608 251.28175864 238.388547 254.22119141 241.3449707 C254.99011719 242.12227539 255.75904297 242.89958008 256.55126953 243.70043945 C260.7710454 247.93802028 265.07272928 251.9896383 269.60668945 255.88842773 C272.16842474 258.13675739 274.52714527 260.53103792 276.90869141 262.9699707 C279.89813464 266.00442951 282.9004111 268.9716821 286.15869141 271.7199707 C290.97448678 275.81936677 295.35432949 280.36492171 299.77880859 284.87719727 C302.87310528 288.01399353 306.00535463 291.03310277 309.34619141 293.9074707 C314.5294035 298.37679713 319.26078391 303.27383175 324.05322266 308.15356445 C328.07425317 312.21870133 332.1861115 316.07517482 336.52001953 319.80395508 C339.45390283 322.39196175 342.17586225 325.17302825 344.90869141 327.9699707 C348.91524268 332.02701267 352.96758471 335.9099627 357.31884766 339.59887695 C360.63686951 342.56959185 363.73836963 345.75653653 366.84643555 348.94482422 C369.56124294 351.70759152 372.34820394 354.31655278 375.28369141 356.8449707 C380.2540267 361.14440523 384.80972925 365.82024756 389.40869141 370.5090332 C393.30419055 374.45018273 397.3042782 378.17038091 401.50244141 381.78637695 C404.44101212 384.38171297 407.16999133 387.16702951 409.90869141 389.9699707 C413.31711884 393.42129597 416.70518591 396.83140672 420.40869141 399.9699707 C426.43165849 405.08114533 431.86089379 410.85561775 437.40869141 416.4699707 C440.43501684 419.53232382 443.49665678 422.49271805 446.72119141 425.3449707 C457.93690187 435.38889052 468.84312967 445.74512914 479.40869141 456.4699707 C482.50666837 459.61124238 485.65651563 462.62161329 488.97119141 465.5324707 C492.96367125 469.09654734 496.77530601 472.78913844 500.53369141 476.5949707 C504.31166554 480.42045906 508.16436749 484.06583904 512.26416016 487.54418945 C515.75062086 490.67501847 519.01205234 494.03279026 522.28564453 497.3840332 C524.5703434 499.70776109 526.68530331 501.65437864 529.40869141 503.4699707 C529.40869141 504.1299707 529.40869141 504.7899707 529.40869141 505.4699707 C529.98232422 505.72907227 530.55595703 505.98817383 531.14697266 506.25512695 C534.36246229 507.98227251 536.94124331 510.34487151 539.70166016 512.71606445 C546.44135205 517.08276238 553.45615081 517.99437918 561.34619141 517.9699707 C562.17570313 517.99833008 563.00521484 518.02668945 563.85986328 518.0559082 C573.35589442 518.0854219 579.82669862 514.245931 586.58447266 507.7824707 C588.30977807 506.02436481 590.02191232 504.25324457 591.72119141 502.4699707 C592.58808594 501.58051758 593.45498047 500.69106445 594.34814453 499.7746582 C596.00359655 498.07480708 597.65389564 496.36991677 599.2980957 494.65917969 C600.93416022 492.96217673 602.58311463 491.28612178 604.26025391 489.63012695 C606.42107007 487.45752452 608.44952917 485.20959475 610.47119141 482.9074707 C614.03526823 478.91499066 617.72786296 475.10335972 621.53369141 471.3449707 C624.75225564 468.16632665 627.91756747 464.98432273 630.84619141 461.5324707 C634.00879122 457.81039377 637.43839837 454.40130998 640.90869141 450.9699707 C644.35807024 447.55926746 647.76989043 444.17375586 650.90869141 440.4699707 C654.57325671 436.14578365 658.62390006 432.2291478 662.65087891 428.24731445 C665.51443257 425.40355494 668.29746331 422.55121986 670.90869141 419.4699707 C674.04749303 415.76618479 677.45932096 412.38068191 680.90869141 408.9699707 C686.00451135 403.93147065 686.00451135 403.93147065 690.78369141 398.5949707 C694.93447398 393.68566949 699.58374543 389.24735996 704.16796875 384.74780273 C704.79912598 384.12502441 705.4302832 383.50224609 706.08056641 382.8605957 C706.6487207 382.30404297 707.216875 381.74749023 707.80224609 381.17407227 C709.4924957 379.45751063 709.4924957 379.45751063 710.99169922 377.25805664 C711.45930664 376.66798828 711.92691406 376.07791992 712.40869141 375.4699707 C713.06869141 375.4699707 713.72869141 375.4699707 714.40869141 375.4699707 C714.61107422 374.93887695 714.81345703 374.4077832 715.02197266 373.8605957 C717.0127305 370.42864134 719.75178525 367.9585534 722.59619141 365.2199707 C726.13373424 361.79387905 729.56131676 358.3481807 732.77197266 354.6105957 C737.4637867 349.17281651 742.61889179 344.21296161 747.73681641 339.1809082 C751.9462186 335.01445909 755.96266114 330.77014705 759.82275391 326.27856445 C762.88221914 322.78956839 766.24619635 319.61687764 769.56494141 316.3762207 C771.69509433 314.25206821 773.66949998 312.03472148 775.62744141 309.7512207 C780.76800386 303.81462786 786.43507969 298.39920015 792.02587891 292.8918457 C796.46254182 288.49563869 800.73012796 284.04715067 804.79541016 279.3059082 C807.36123645 276.3859606 810.12978723 273.68518467 812.90869141 270.9699707 C816.36001667 267.56154327 819.77012743 264.1734762 822.90869141 260.4699707 C826.57325671 256.14578365 830.62390006 252.2291478 834.65087891 248.24731445 C837.51443257 245.40355494 840.29746331 242.55121986 842.90869141 239.4699707 C846.04749303 235.76618479 849.45932096 232.38068191 852.90869141 228.9699707 C858.00451135 223.93147065 858.00451135 223.93147065 862.78369141 218.5949707 C866.87198075 213.76709133 871.44399157 209.4109144 875.93505859 204.96313477 C879.07700237 201.83992091 882.16857188 198.72840331 885.03369141 195.3449707 C886.15290447 194.04828651 887.27887962 192.75743065 888.40869141 191.4699707 C888.8535791 190.96159668 889.2984668 190.45322266 889.75683594 189.92944336 C891.34318737 188.14574677 892.9656991 186.40083957 894.59619141 184.6574707 C895.33506592 183.81128174 895.33506592 183.81128174 896.08886719 182.94799805 C902.14847099 176.60593082 910.72263696 175.41848623 919.20845032 175.0688324 C921.24161046 175.04235274 923.27501881 175.03149719 925.30834961 175.03417969 C926.43027206 175.02410385 927.55219452 175.01402802 928.70811462 175.00364685 C932.37533823 174.9754063 936.04214746 174.96930422 939.70947266 174.96606445 C942.27630274 174.95641327 944.84313119 174.94632006 947.40995789 174.93580627 C952.77001486 174.91790953 958.12990939 174.91214988 963.48999023 174.9140625 C969.67180865 174.91587024 975.85284637 174.88407617 982.03446704 174.83683151 C988.00929136 174.79280968 993.98369211 174.78209955 999.95870018 174.78389168 C1002.49004513 174.78035533 1005.02139611 174.76710685 1007.5526371 174.74389458 C1011.08775665 174.71448629 1014.62085349 174.72312476 1018.15600586 174.74121094 C1019.19667206 174.72435242 1020.23733826 174.7074939 1021.30953979 174.69012451 C1027.39209634 174.76916805 1030.77278221 175.66084651 1035.19598675 179.93284702 C1037.56963233 182.94148297 1037.11488282 185.46259575 1036.82275391 189.0871582 C1035.72219771 195.42054761 1032.2648211 198.89775135 1027.73681641 203.1496582 C1025.81199585 205.06801963 1024.06352321 207.01016391 1022.29931641 209.0715332 C1016.92292471 215.27495144 1010.98901126 220.93321973 1005.14697266 226.69262695 C1000.58662041 231.21349563 996.18125577 235.77449708 992.00439453 240.65161133 C989.44602927 243.56695779 986.68156673 246.26062825 983.90869141 248.9699707 C980.49926866 252.33712391 977.12432229 255.67784908 974.03369141 259.3449707 C970.55617231 263.45158873 966.7287953 267.18625314 962.90869141 270.9699707 C957.86123181 275.97397049 952.96421542 281.00817534 948.40869141 286.4699707 C944.33404871 291.29783243 940.27329218 295.41613673 935.40869141 299.4699707 C934.36768212 300.61867061 933.34876433 301.78757511 932.34619141 302.9699707 C929.05451475 306.8408065 925.52106867 310.40304821 921.90869141 313.9699707 C918.45907317 317.38039423 915.04746333 320.76621983 911.90869141 324.4699707 C908.28524757 328.74563443 904.2952067 332.63815238 900.28955078 336.55200195 C897.42966352 339.36649418 894.71031239 342.23721711 892.09619141 345.2824707 C887.18812804 350.9623447 881.78261523 356.14144852 876.43603516 361.40356445 C872.09261411 365.7051548 867.92747786 370.07185187 863.94580078 374.71020508 C861.87627193 377.0795132 859.66192663 379.27603114 857.40869141 381.4699707 C854.47750949 384.36589028 851.64465966 387.27239642 848.97119141 390.4074707 C845.30191838 394.70130083 841.28982248 398.62133683 837.25244141 402.5637207 C835.14265006 404.66758567 833.18899575 406.86229646 831.25244141 409.1262207 C826.14106454 415.02910849 820.50800982 420.42835047 814.95166016 425.90649414 C809.77982296 431.0121151 804.71346894 436.14350757 799.98681641 441.66918945 C797.4359497 444.57995567 794.67554693 447.26651968 791.90869141 449.9699707 C788.47831145 453.3577673 785.08584666 456.72219159 781.97119141 460.4074707 C778.66293881 464.31270122 775.0433532 467.87253674 771.40869141 471.4699707 C766.52561413 476.30786376 761.84142301 481.21228905 757.40869141 486.4699707 C752.99674807 491.60418484 748.62608608 496.14064321 743.40869141 500.4699707 C742.36782462 501.61879973 741.34898177 502.78775952 740.34619141 503.9699707 C737.05451475 507.8408065 733.52106867 511.40304821 729.90869141 514.9699707 C726.45907317 518.38039423 723.04746333 521.76621983 719.90869141 525.4699707 C716.28524757 529.74563443 712.2952067 533.63815238 708.28955078 537.55200195 C705.41934836 540.37664561 702.6902311 543.25894813 700.06494141 546.3137207 C695.36381757 551.75411318 690.20428585 556.72128221 685.08056641 561.7590332 C680.86098656 565.93555611 676.83289361 570.19008105 672.96337891 574.69262695 C670.88671983 577.066697 668.66789136 579.27022338 666.40869141 581.4699707 C663.49815339 584.3455473 660.68445119 587.22871164 658.03369141 590.3449707 C654.99438352 593.90283349 651.73504469 597.18438155 648.40869141 600.4699707 C645.16571662 603.67339701 641.97932954 606.86104337 639.03369141 610.3449707 C632.79496307 617.68010922 625.66516169 624.27119354 618.81494141 631.02856445 C616.14689842 633.73558858 613.58472193 636.52868714 611.03369141 639.3449707 C609.16221095 641.38990392 607.28564027 643.43004509 605.40869141 645.4699707 C604.77576172 646.15961914 604.14283203 646.84926758 603.49072266 647.55981445 C594.25143029 657.23802807 584.01736655 663.20586848 570.53759766 663.70825195 C547.71940815 664.16961901 532.34564132 658.42130097 515.81103516 642.8293457 C512.60586486 639.68150366 509.43342774 636.50277583 506.26928711 633.3137207 C503.71356139 630.73883662 501.15491581 628.1668747 498.59619141 625.5949707 C497.731875 624.72227539 496.86755859 623.84958008 495.97705078 622.95043945 C491.52817975 618.48478022 487.02175667 614.18297217 482.23803711 610.07885742 C478.76156603 607.02134448 475.57353131 603.67632781 472.34228516 600.36450195 C469.49055378 597.47073031 466.58152714 594.71582385 463.50244141 592.0637207 C458.54106186 587.77651905 453.99728442 583.10912217 449.40869141 578.4309082 C445.5031335 574.47958204 441.49279263 570.74773171 437.28369141 567.12231445 C434.52930276 564.69500946 431.97016066 562.09756484 429.40869141 559.4699707 C426.16653913 556.18323884 422.92918158 552.96238735 419.40869141 549.9699707 C415.36770943 546.53513602 411.670625 542.7902966 407.97119141 538.99536133 C405.31703959 536.29432911 402.59940448 533.74448596 399.72119141 531.2824707 C393.82696015 526.18384861 388.4398407 520.5586687 382.97216797 515.01293945 C377.86654701 509.84110225 372.73515454 504.77474823 367.20947266 500.0480957 C364.29870858 497.49723087 361.61212192 494.73684439 358.90869141 491.9699707 C354.85942229 487.86954068 350.76238689 483.93847445 346.36572266 480.20825195 C343.04099993 477.25515492 339.97422899 474.04241561 336.85009766 470.88012695 C334.14053956 468.2052512 331.3097704 465.73060904 328.41650391 463.2590332 C325.28632313 460.4698838 322.38712417 457.45754148 319.44384766 454.47387695 C317.22421773 452.28832963 314.86604425 450.38124513 312.40869141 448.4699707 C310.72656388 446.81701302 309.0651166 445.14850777 307.40869141 443.4699707 C304.14117616 440.17499735 300.86902414 436.8846613 297.59619141 433.5949707 C296.2997168 432.28592773 296.2997168 432.28592773 294.97705078 430.95043945 C290.52817975 426.48478022 286.02175667 422.18297217 281.23803711 418.07885742 C277.76156603 415.02134448 274.57353131 411.67632781 271.34228516 408.36450195 C268.49055378 405.47073031 265.58152714 402.71582385 262.50244141 400.0637207 C257.54106186 395.77651905 252.99728442 391.10912217 248.40869141 386.4309082 C244.5031335 382.47958204 240.49279263 378.74773171 236.28369141 375.12231445 C233.52930276 372.69500946 230.97016066 370.09756484 228.40869141 367.4699707 C225.16653913 364.18323884 221.92918158 360.96238735 218.40869141 357.9699707 C214.8879142 354.97731008 211.65321908 351.754641 208.40869141 348.4699707 C205.20525926 345.22700222 202.01761927 342.04060928 198.53369141 339.0949707 C191.20553273 332.8621789 184.62021856 325.73981131 177.86962891 318.89575195 C175.05071464 316.11710789 172.14600588 313.44850619 169.22119141 310.7824707 C164.23212845 306.21228809 159.41688502 301.50796456 154.66259766 296.69262695 C152.6781222 294.73566589 150.65388767 292.90170879 148.53369141 291.0949707 C144.41120256 287.57333043 140.64666078 283.73580151 136.83984375 279.8815918 C133.44702331 276.46296226 129.95032792 273.24342046 126.27978516 270.12231445 C123.45925703 267.63153492 120.86016864 264.93143195 118.22119141 262.2512207 C116.07871894 260.14568741 113.77146409 258.32187362 111.40869141 256.4699707 C109.72658818 254.81698081 108.0651039 253.14852446 106.40869141 251.4699707 C103.14117772 248.1749958 99.86902414 244.8846613 96.59619141 241.5949707 C95.731875 240.72227539 94.86755859 239.84958008 93.97705078 238.95043945 C89.51806603 234.47462835 85.00149146 230.1611464 80.20678711 226.04760742 C76.96487025 223.20317202 73.99298872 220.09779267 70.98681641 217.0090332 C68.27516943 214.25364999 65.49618726 211.64818739 62.56494141 209.1262207 C57.35517582 204.61967443 52.58781549 199.69789486 47.76416016 194.78637695 C43.733066 190.71106604 39.61097198 186.84293825 35.26611328 183.10473633 C32.51645686 180.68469171 29.96431365 178.09156689 27.40869141 175.4699707 C24.16653913 172.18323884 20.92918158 168.96238735 17.40869141 165.9699707 C13.88791446 162.9773103 10.65321611 159.7546442 7.40869141 156.4699707 C4.18471053 153.20614456 0.97351293 150.00166929 -2.52880859 147.0324707 C-6.91815152 143.307062 -10.91417866 139.20002712 -14.93676758 135.08740234 C-18.00733381 131.9682231 -21.15735894 129.1938306 -24.59130859 126.4699707 C-26.28296732 124.8286766 -27.94450197 123.15626353 -29.59130859 121.4699707 C-32.69071092 118.34023286 -35.79767443 115.21802544 -38.90380859 112.0949707 C-40.12874023 110.8574707 -40.12874023 110.8574707 -41.37841797 109.5949707 C-45.73769065 105.21833041 -50.16991724 101.01844493 -54.85180664 96.98950195 C-63.70355165 89.25711446 -69.11899797 81.22119069 -70.59130859 69.4699707 C-71.40874439 54.13027701 -72.00507918 38.81462792 -61.59130859 26.4699707 C-59.08541231 23.83155105 -56.52304794 21.2769326 -53.89990234 18.75512695 C-52.08920765 16.96281495 -50.58861057 15.26077731 -49.09130859 13.2199707 C-36.45089873 -0.68448015 -17.23221547 -0.10844738 0 0 Z " fill="#3936FF" transform="translate(88.59130859375,591.530029296875)"/>
<path d="M0 0 C1.29517044 -0.00637985 2.59034088 -0.0127597 3.92475891 -0.01933289 C5.33159345 -0.02086196 6.73842849 -0.02197571 8.14526367 -0.02270508 C9.59868909 -0.02592167 11.05211419 -0.02928604 12.50553894 -0.03279114 C15.54927317 -0.03876964 18.59297906 -0.04063239 21.63671875 -0.04003906 C25.52013744 -0.0399376 29.40337265 -0.05357888 33.28674793 -0.07081127 C36.28863851 -0.08197898 39.29048542 -0.0839568 42.29239464 -0.08342934 C43.72319864 -0.08460269 45.15400401 -0.08898792 46.58478737 -0.0967617 C63.54146127 -0.18025618 63.54146127 -0.18025618 69.60229492 3.37963867 C78.66250673 12.39338786 81.25561243 23.63858901 81.31071472 35.92941284 C81.29893033 37.52203793 81.28656712 39.11465883 81.27368164 40.70727539 C81.28187178 42.42361837 81.29268525 44.1399505 81.30589294 45.85626221 C81.33409963 50.47121709 81.32605337 55.08545155 81.31102514 59.70044088 C81.30158852 64.53979858 81.3261477 69.3789871 81.34695435 74.21829224 C81.38117874 83.36229517 81.38524934 92.50604761 81.37822926 101.65010178 C81.37171811 112.06868332 81.39921397 122.48709069 81.42943168 132.90562034 C81.49078336 154.31885442 81.5098668 175.73195116 81.50073242 197.14526367 C82.76385057 195.89407066 84.02522634 194.64111855 85.28588867 193.38745117 C85.9885083 192.68990723 86.69112793 191.99236328 87.41503906 191.27368164 C89.94422626 188.69268504 92.31040704 185.99871118 94.66870117 183.26245117 C99.52804638 177.64674733 104.5475232 172.17159513 109.59570312 166.72583008 C113.57142626 162.43025294 117.40480611 158.09490963 121.06323242 153.52026367 C124.81784426 148.85218634 128.88202995 144.6638516 133.16088867 140.47729492 C135.82059381 137.82647026 138.28136527 135.05774863 140.72338867 132.20776367 C142.78049483 129.82061631 144.88758014 127.48291611 147.00073242 125.14526367 C149.69056673 122.16463647 152.36383606 119.17281134 155.00073242 116.14526367 C158.32056113 112.33360849 161.7019438 108.57974663 165.09448242 104.83276367 C167.0128165 102.69020873 168.90262496 100.52930031 170.78588867 98.35620117 C174.55083208 94.04445659 178.48490357 89.90860169 182.43823242 85.77026367 C187.43204725 80.51307759 192.16653703 75.21563147 196.58666992 69.46166992 C199.29591981 66.18292464 202.3326488 63.27245807 205.3762207 60.30639648 C208.37128022 57.35763641 211.07847297 54.31234573 213.68823242 51.02026367 C218.97309598 44.38323682 224.84570028 38.32464877 230.68432617 32.17651367 C236.30130339 26.26130204 241.73311161 20.19511345 247.06323242 14.02026367 C248.2054505 12.72539894 249.35136777 11.43378907 250.50073242 10.14526367 C251.1375293 9.41823242 251.77432617 8.69120117 252.43041992 7.94213867 C253.09299805 7.22541992 253.75557617 6.50870117 254.43823242 5.77026367 C255.02475586 5.1231543 255.6112793 4.47604492 256.21557617 3.80932617 C261.44241523 0.00311516 268.16193162 -0.1520025 274.42626953 -0.12939453 C275.17375961 -0.13450546 275.92124969 -0.13961639 276.69139099 -0.1448822 C279.13703651 -0.15866517 281.58239668 -0.15783017 284.02807617 -0.15551758 C285.74386192 -0.15941044 287.45964672 -0.16374632 289.1754303 -0.16850281 C292.76200492 -0.17594053 296.34848106 -0.17569136 299.93505859 -0.17041016 C304.51227489 -0.16461583 309.08908649 -0.1815575 313.66623592 -0.20475483 C317.20689721 -0.21954445 320.74746217 -0.22035683 324.28814888 -0.2172451 C325.97490809 -0.21775559 327.66167307 -0.2229417 329.34840202 -0.23305702 C349.13187139 -0.33716179 349.13187139 -0.33716179 355.65698242 4.86401367 C356.10041992 5.45182617 356.54385742 6.03963867 357.00073242 6.64526367 C357.46479492 7.23307617 357.92885742 7.82088867 358.40698242 8.42651367 C361.27098912 12.92709563 361.05122388 18.00996483 360.50073242 23.14526367 C359.27627713 25.93702175 358.2766985 27.77202329 356.50073242 30.14526367 C356.02635742 30.79624023 355.55198242 31.4472168 355.06323242 32.11791992 C347.08584103 42.68412823 338.22969246 52.54268294 329.21166992 62.21948242 C326.50608642 65.13948536 323.8779577 68.11159347 321.27416992 71.12182617 C319.0493515 73.66027539 316.77569923 76.15168144 314.50073242 78.64526367 C311.04058514 82.43942216 307.62594127 86.26493604 304.25854492 90.14135742 C302.30069657 92.37330455 300.30823341 94.57147226 298.31323242 96.77026367 C294.71622201 100.75071174 291.22192046 104.80579499 287.75073242 108.89526367 C282.98159672 114.50510747 278.04734568 119.93381252 273.0144043 125.30737305 C269.6619398 128.88739877 266.37794055 132.51028 263.17260742 136.22338867 C261.14315169 138.55631442 259.07308542 140.85037613 257.00073242 143.14526367 C252.12035307 148.55789916 247.31872133 154.03286825 242.56323242 159.55541992 C236.45387182 166.64176498 230.27186969 173.63629428 223.92260742 180.50854492 C221.31326778 183.34935824 218.76989187 186.23919943 216.24291992 189.15307617 C214.18572843 191.50547002 212.09476328 193.82561333 210.00073242 196.14526367 C206.75788691 199.73809588 203.55744392 203.362683 200.38354492 207.01635742 C197.32313569 210.47677865 194.1725588 213.85499995 191.02807617 217.23901367 C187.98643924 220.73666108 185.2363483 224.40629543 182.50073242 228.14526367 C183.11779053 228.95024292 183.11779053 228.95024292 183.74731445 229.77148438 C191.12153595 239.39967848 198.46598502 249.04363777 205.62573242 258.83276367 C210.68940791 265.75008689 215.88430722 272.54803118 221.17211914 279.29516602 C226.26644438 285.80798383 231.22953381 292.4141939 236.1784668 299.0378418 C240.33695461 304.60128275 244.53963614 310.12501341 248.78588867 315.62182617 C257.58873128 327.02727776 266.29644766 338.50696514 274.92211914 350.046875 C279.08206301 355.60487861 283.28860384 361.12674183 287.50073242 366.64526367 C292.67132857 373.41952216 297.81406732 380.21275125 302.91601562 387.03881836 C307.83240379 393.60726548 312.81247582 400.12684657 317.78979492 406.64916992 C321.9016774 412.03960319 325.98583248 417.44845687 330.04370117 422.87963867 C333.43864455 427.40622985 336.88084227 431.89705755 340.31323242 436.39526367 C349.54642582 448.50466796 358.72480045 460.64673662 367.68823242 472.95776367 C368.25372803 473.72950928 368.81922363 474.50125488 369.40185547 475.29638672 C369.92303955 476.01608643 370.44422363 476.73578613 370.98120117 477.47729492 C371.44421631 478.1138501 371.90723145 478.75040527 372.38427734 479.40625 C375.42011972 484.13494128 375.15596504 489.74879732 374.50073242 495.14526367 C372.49230654 500.25383242 369.61095787 503.9177295 364.50073242 506.14526367 C360.59455034 507.45623346 356.6116604 507.30767703 352.53857422 507.32226562 C351.73968781 507.32883682 350.94080139 507.33540802 350.1177063 507.34217834 C347.47845356 507.36186115 344.83925757 507.37356209 342.19995117 507.38354492 C340.84500518 507.38965821 340.84500518 507.38965821 339.46268654 507.395895 C334.68248347 507.41673331 329.90230893 507.43104529 325.12207031 507.44042969 C320.19250065 507.45149574 315.26338216 507.48590428 310.33397198 507.52560139 C306.53604813 507.55177831 302.73823172 507.56012242 298.9402256 507.56371117 C297.12340049 507.56857351 295.30658006 507.58017746 293.48984337 507.59874916 C290.94322534 507.62316629 288.39777411 507.62217131 285.85107422 507.61523438 C284.73408394 507.63444946 284.73408394 507.63444946 283.5945282 507.65405273 C277.11122741 507.58994311 272.8772408 505.52600071 268.30541992 500.94604492 C267.35022461 499.7143457 267.35022461 499.7143457 266.37573242 498.45776367 C265.61647461 497.48838867 264.8572168 496.51901367 264.07495117 495.52026367 C263.21631659 494.39569229 262.35828322 493.27066172 261.50073242 492.14526367 C260.48692215 490.83236765 259.4725711 489.51988909 258.45776367 488.20776367 C252.50585254 480.48566045 246.64808343 472.6931357 240.81005859 464.88476562 C237.73816895 460.78028243 234.63593652 456.70155177 231.50073242 452.64526367 C227.85369658 447.92677401 224.25898221 443.17172871 220.68823242 438.39526367 C215.88458603 431.96967746 211.02700227 425.58742385 206.14599609 419.22045898 C203.07501259 415.21190085 200.02353012 411.19039698 197.00073242 407.14526367 C193.32299572 402.22578192 189.60647514 397.33708168 185.87573242 392.45776367 C185.34915039 391.76875977 184.82256836 391.07975586 184.2800293 390.36987305 C181.5451663 386.79718154 178.79339357 383.23912528 176.02026367 379.69604492 C172.52236653 375.20543607 169.16336765 370.62153854 165.81323242 366.02026367 C160.90444953 359.31198863 155.85820676 352.75192918 150.62573242 346.29394531 C147.07441359 341.89966688 143.70698637 337.40213646 140.41479492 332.80932617 C132.14957597 321.30549082 123.36033571 310.19395308 114.50073242 299.14526367 C104.05023705 309.25367185 104.05023705 309.25367185 94.37849808 320.08610821 C92.50073242 322.14526367 92.50073242 322.14526367 89.82032394 324.39543629 C84.2891864 329.1939699 80.85877284 332.47413015 80.18707275 340.09294128 C80.15887925 342.74547918 80.18846142 345.35427139 80.27124023 348.00146484 C80.27595116 349.46478531 80.27569079 350.9281288 80.27088928 352.39144897 C80.27089517 355.52343805 80.30503107 358.65245378 80.36646271 361.78383446 C80.46315824 366.75031789 80.47886193 371.71514671 80.48406982 376.68244934 C80.50329223 385.44431559 80.58872015 394.20456862 80.68988037 402.96582031 C80.84181847 416.13131815 80.94742756 429.29690242 80.98101115 442.46324521 C80.99367316 446.58454389 81.02262 450.70441889 81.08982086 454.82521629 C81.65139585 489.32841066 81.65139585 489.32841066 73.50073242 500.14526367 C67.99716802 505.69437063 63.26625571 507.38776544 55.54248047 507.43579102 C54.86209717 507.44250824 54.18171387 507.44922546 53.48071289 507.45614624 C51.2412171 507.47507516 49.00202189 507.47904797 46.76245117 507.48120117 C45.19692362 507.48763331 43.63139726 507.49436198 42.06587219 507.50137329 C38.78672501 507.51333374 35.50768307 507.51705546 32.22851562 507.51586914 C28.04222125 507.51566617 23.85660739 507.54295067 19.67047405 507.57741356 C16.43694507 507.59973639 13.20357837 507.60370502 9.96998024 507.60264969 C8.42751537 507.60499823 6.88504552 507.61377943 5.34265709 507.62931442 C-10.67797247 507.77555224 -10.67797247 507.77555224 -16.49926758 503.14526367 C-21.0750075 498.31808748 -22.22999179 494.25789369 -22.13405991 487.73185062 C-22.1458595 486.49503856 -22.1458595 486.49503856 -22.15789747 485.2332404 C-22.17815203 482.46999173 -22.16282873 479.70810387 -22.14764404 476.94483948 C-22.15483755 474.94396275 -22.16420385 472.94309286 -22.17555642 470.94223541 C-22.20033643 465.44360428 -22.19385174 459.94538506 -22.18220901 454.44672668 C-22.17502229 448.51681064 -22.19652187 442.58698873 -22.21426392 436.65710449 C-22.24423294 425.0400405 -22.2468312 413.42311561 -22.23925075 401.80602235 C-22.23329298 392.36545216 -22.23651197 382.92492458 -22.24622345 373.48435783 C-22.24758272 372.12800229 -22.24893989 370.77164675 -22.250295 369.4152912 C-22.25234744 367.37139529 -22.25440599 365.32749939 -22.25648659 363.2836035 C-22.27562102 344.28119881 -22.28468204 325.27881037 -22.27260971 306.27639866 C-22.27215616 305.56007529 -22.27170261 304.84375193 -22.27123532 304.10572179 C-22.26749532 298.28864438 -22.26349534 292.47156714 -22.25947385 286.65448991 C-22.24401273 263.96244599 -22.26030338 241.27062213 -22.30200195 218.57861328 C-22.3487844 193.08379998 -22.37236758 167.58912079 -22.36123872 142.09426254 C-22.36012731 139.37617014 -22.35909137 136.65807772 -22.35810089 133.93998528 C-22.35784035 133.27072218 -22.35757981 132.60145908 -22.35731137 131.91191529 C-22.35384173 121.80694701 -22.36847129 111.70210777 -22.39220428 101.59716988 C-22.41879691 90.10611893 -22.42093374 78.61538265 -22.39134321 67.12433357 C-22.37690874 61.25994686 -22.37378548 55.39612855 -22.40099716 49.53177452 C-22.42560297 44.16442204 -22.41796401 38.79812253 -22.38449624 33.43082689 C-22.37805933 31.48810924 -22.38346725 29.54530916 -22.40184376 27.60266776 C-22.54548158 11.27031733 -22.54548158 11.27031733 -18.13205338 6.06230068 C-12.36639943 0.88639547 -7.59358198 0.02545192 0 0 Z " fill="#3936FF" transform="translate(470.499267578125,392.854736328125)"/>
</svg>
